<svg xmlns="http://www.w3.org/2000/svg" viewBox="0 0 1536 776" preserveAspectRatio="xMidYMid" width="1536" height="776" xmlns:xlink="http://www.w3.org/1999/xlink" style="shape-rendering:auto;display:block;background-position-x:0%;background-position-y:0%;background-size:auto;background-origin:padding-box;background-clip:border-box;background:scroll rgb(15, 23, 42) none  repeat;width:1536px;height:776px;;animation:none"><g><linearGradient y2="0" y1="0" x2="1" x1="0" id="lg-vwk8kpvs8f7"><stop offset="0" stop-color="#eab308"></stop>

  
<stop offset="1" stop-color="#ffd900"></stop></linearGradient>
<path opacity="0.4" fill="url(#lg-vwk8kpvs8f7)" d="M 0 0 L 0 386.76 Q 153.6 405.54 307.2 371.67 T 614.4 297.41 T 921.6 324.95 T 1228.8 229.18 T 1536 259.16 L 1536 0 Z" style="fill:url('#lg-vwk8kpvs8f7');opacity:0.4;;animation:none"></path>
<path opacity="0.4" fill="url(#lg-vwk8kpvs8f7)" d="M 0 0 L 0 416.676 Q 153.6 422.879 307.2 385.53 T 614.4 364.031 T 921.6 252.716 T 1228.8 232.708 T 1536 239.478 L 1536 0 Z" style="fill:url('#lg-vwk8kpvs8f7');opacity:0.4;;animation:none"></path>
<path opacity="0.4" fill="url(#lg-vwk8kpvs8f7)" d="M 0 0 L 0 455.139 Q 153.6 435.241 307.2 391.761 T 614.4 387.892 T 921.6 341.805 T 1228.8 213.628 T 1536 204.894 L 1536 0 Z" style="fill:url('#lg-vwk8kpvs8f7');opacity:0.4;;animation:none"></path>
<path opacity="0.4" fill="url(#lg-vwk8kpvs8f7)" d="M 0 0 L 0 403.095 Q 153.6 438.831 307.2 416.544 T 614.4 278.463 T 921.6 283.519 T 1228.8 282.634 T 1536 206.787 L 1536 0 Z" style="fill:url('#lg-vwk8kpvs8f7');opacity:0.4;;animation:none"></path>
<path opacity="0.4" fill="url(#lg-vwk8kpvs8f7)" d="M 0 0 L 0 387.822 Q 153.6 374.451 307.2 345.728 T 614.4 327 T 921.6 320.533 T 1228.8 251.308 T 1536 230.738 L 1536 0 Z" style="fill:url('#lg-vwk8kpvs8f7');opacity:0.4;;animation:none"></path>
<g></g></g><!-- [ldio] generated by https://loading.io --></svg>