<svg xmlns="http://www.w3.org/2000/svg" viewBox="0 0 1598 776" preserveAspectRatio="xMidYMid" width="1598" height="776" xmlns:xlink="http://www.w3.org/1999/xlink" style="shape-rendering:auto;display:block;background-position-x:0%;background-position-y:0%;background-size:auto;background-origin:padding-box;background-clip:border-box;background:scroll rgb(15, 23, 42) none  repeat;width:1598px;height:776px;;animation:none"><g><linearGradient y2="0" y1="0" x2="1" x1="0" id="lg-ca780xlr0a"><stop offset="0" stop-color="#eab308"></stop>

  
<stop offset="1" stop-color="#ffd900"></stop></linearGradient>
<path opacity="0.4" fill="url(#lg-ca780xlr0a)" d="M 0 0 L 0 238.25 Q 159.8 306.29 319.6 263.16 T 639.2 259.8 T 958.8 318.96 T 1278.4 143 T 1598 129.98 L 1598 0 Z" style="fill:url('#lg-ca780xlr0a');opacity:0.4;;animation:none"></path>
<path opacity="0.4" fill="url(#lg-ca780xlr0a)" d="M 0 0 L 0 309.964 Q 159.8 287.663 319.6 265.995 T 639.2 283.682 T 958.8 181.755 T 1278.4 265.378 T 1598 246.223 L 1598 0 Z" style="fill:url('#lg-ca780xlr0a');opacity:0.4;;animation:none"></path>
<path opacity="0.4" fill="url(#lg-ca780xlr0a)" d="M 0 0 L 0 368.147 Q 159.8 267.782 319.6 231.031 T 639.2 201.581 T 958.8 246.443 T 1278.4 261.531 T 1598 266.408 L 1598 0 Z" style="fill:url('#lg-ca780xlr0a');opacity:0.4;;animation:none"></path>
<path opacity="0.4" fill="url(#lg-ca780xlr0a)" d="M 0 0 L 0 241.979 Q 159.8 294.89 319.6 250.685 T 639.2 259.16 T 958.8 228.885 T 1278.4 251.174 T 1598 133.47 L 1598 0 Z" style="fill:url('#lg-ca780xlr0a');opacity:0.4;;animation:none"></path>
<path opacity="0.4" fill="url(#lg-ca780xlr0a)" d="M 0 0 L 0 243.718 Q 159.8 348.126 319.6 318.099 T 639.2 272.671 T 958.8 184.681 T 1278.4 239.25 T 1598 218.691 L 1598 0 Z" style="fill:url('#lg-ca780xlr0a');opacity:0.4;;animation:none"></path>
<g></g></g><!-- [ldio] generated by https://loading.io --></svg>