<svg xmlns="http://www.w3.org/2000/svg" viewBox="0 0 1920 320" preserveAspectRatio="xMidYMid" width="1920" height="320" xmlns:xlink="http://www.w3.org/1999/xlink" style="shape-rendering:auto;display:block;background-position-x:0%;background-position-y:0%;background-size:auto;background-origin:padding-box;background-clip:border-box;background:scroll rgb(15, 23, 42) none  repeat;width:1920px;height:320px;;animation:none"><g><linearGradient y2="0" y1="0" x2="1" x1="0" id="lg-5bzau3z6yl5"><stop offset="0" stop-color="#eab308"></stop>

  
<stop offset="1" stop-color="#ffd900"></stop></linearGradient>
<path opacity="0.4" fill="url(#lg-5bzau3z6yl5)" d="M 0 0 L 0 254.95 Q 160 181.06 320 162.76 T 640 117.42 T 960 132.7 T 1280 129.87 T 1600 102.73 T 1920 65.97 L 1920 0 Z" style="fill:url('#lg-5bzau3z6yl5');opacity:0.4;;animation:none"></path>
<path opacity="0.4" fill="url(#lg-5bzau3z6yl5)" d="M 0 0 L 0 196.986 Q 160 202.486 320 168.605 T 640 191.171 T 960 154.876 T 1280 100.077 T 1600 133.973 T 1920 22.1197 L 1920 0 Z" style="fill:url('#lg-5bzau3z6yl5');opacity:0.4;;animation:none"></path>
<path opacity="0.4" fill="url(#lg-5bzau3z6yl5)" d="M 0 0 L 0 206.886 Q 160 215.287 320 193.254 T 640 208.543 T 960 59.9265 T 1280 40.5989 T 1600 117.274 T 1920 89.1027 L 1920 0 Z" style="fill:url('#lg-5bzau3z6yl5');opacity:0.4;;animation:none"></path>
<path opacity="0.4" fill="url(#lg-5bzau3z6yl5)" d="M 0 0 L 0 248.857 Q 160 170.74 320 133.365 T 640 112.998 T 960 181.331 T 1280 84.9477 T 1600 152.767 T 1920 39.9649 L 1920 0 Z" style="fill:url('#lg-5bzau3z6yl5');opacity:0.4;;animation:none"></path>
<path opacity="0.4" fill="url(#lg-5bzau3z6yl5)" d="M 0 0 L 0 187.295 Q 160 273.201 320 251.183 T 640 108.091 T 960 200.597 T 1280 135.919 T 1600 43.1476 T 1920 30.0688 L 1920 0 Z" style="fill:url('#lg-5bzau3z6yl5');opacity:0.4;;animation:none"></path>
<g></g></g><!-- [ldio] generated by https://loading.io --></svg>